<?xml version="1.0" encoding="UTF-8" standalone="no"?>
<!-- Generator: Adobe Illustrator 18.1.1, SVG Export Plug-In . SVG Version: 6.00 Build 0)  -->

<svg
   xmlns:dc="http://purl.org/dc/elements/1.1/"
   xmlns:cc="http://creativecommons.org/ns#"
   xmlns:rdf="http://www.w3.org/1999/02/22-rdf-syntax-ns#"
   xmlns:svg="http://www.w3.org/2000/svg"
   xmlns="http://www.w3.org/2000/svg"
   xmlns:sodipodi="http://sodipodi.sourceforge.net/DTD/sodipodi-0.dtd"
   xmlns:inkscape="http://www.inkscape.org/namespaces/inkscape"
   version="1.1"
   id="Capa_1"
   x="0px"
   y="0px"
   viewBox="0 0 612 612"
   style="enable-background:new 0 0 612 612;"
   xml:space="preserve"
   inkscape:version="0.48.4 r9939"
   width="100%"
   height="100%"
   sodipodi:docname="explosion.svg"><metadata
     id="metadata45"><rdf:RDF><cc:Work
         rdf:about=""><dc:format>image/svg+xml</dc:format><dc:type
           rdf:resource="http://purl.org/dc/dcmitype/StillImage" /></cc:Work></rdf:RDF></metadata><defs
     id="defs43" /><sodipodi:namedview
     pagecolor="#ffffff"
     bordercolor="#666666"
     borderopacity="1"
     objecttolerance="10"
     gridtolerance="10"
     guidetolerance="10"
     inkscape:pageopacity="0"
     inkscape:pageshadow="2"
     inkscape:window-width="640"
     inkscape:window-height="480"
     id="namedview41"
     showgrid="false" /><g
     id="g3027"><path
       style="fill:#d40000"
       inkscape:connector-curvature="0"
       id="path7"
       d="m 602.99944,314.80678 -123.576,9.042 v -107.62 c 0,-10.507 -11.686,-16.795 -20.454,-11.008 l -76.698,50.621 -36.728,-190.03 c -2.449,-12.671 -19.76,-14.647 -25.002,-2.853 l -76.227,171.509 -119.781,-83.532 c -9.877,-6.887 -23.059,1.974 -20.411,13.719 l 37.211,165.022 -100.580999,21.665 c -10.612,2.286 -14.074,15.696 -5.894,22.832 l 71.498999,62.372 -64.119999,50.519 H 162.62544 l 34.12,-26.882 -48.706,-42.488 67.359,-14.508 -23.834,-105.702 78.758,54.924 49.742,-111.92 23.834,123.319 51.815,-34.198 v 70.468 l 84.977,-6.218 -71.505,70.468 36.173,22.737 h 127.332 l -68.007,-42.747 108.536,-106.964 c 8.739,-8.61 2.016,-23.442 -10.22,-22.547 z" /><path
       inkscape:connector-curvature="0"
       id="path9"
       d="M 21.672441,551.69078 H 595.31444 c 9.105,0 16.486,-7.381 16.486,-16.487 v -6.595 c 0,-9.105 -7.381,-16.486 -16.486,-16.486 H 21.672441 c -9.105,10e-4 -16.4860003,7.382 -16.4860003,16.487 v 6.595 c 0,9.105 7.3810003,16.486 16.4860003,16.486 z" /></g><g
     id="g11" /><g
     id="g13" /><g
     id="g15" /><g
     id="g17" /><g
     id="g19" /><g
     id="g21" /><g
     id="g23" /><g
     id="g25" /><g
     id="g27" /><g
     id="g29" /><g
     id="g31" /><g
     id="g33" /><g
     id="g35" /><g
     id="g37" /><g
     id="g39" /></svg>